<svg width="48" height="48" viewBox="0 0 48 48" fill="none" xmlns="http://www.w3.org/2000/svg">
<path d="M31.2547 30.5971C32.6437 30.5825 33.9804 30.0656 35.0178 29.1419C36.0553 28.2183 36.7233 26.9504 36.8986 25.5725C37.2538 22.6925 35.2666 19.9593 32.4384 19.3459L32.9414 19.8489C32.0707 17.1235 29.7571 14.9712 26.9117 14.4729C25.4027 14.2073 23.8491 14.3856 22.4396 14.9862C21.03 15.5867 19.8252 16.5837 18.9715 17.856L19.7846 17.5248C16.7702 16.5945 13.415 17.8867 11.8877 20.6707C10.4323 23.3251 10.9642 26.7542 13.199 28.8105C14.4428 29.9494 16.065 30.586 17.7514 30.5971C18.6787 30.6077 18.6787 29.1677 17.7514 29.1571C15.3994 29.1312 13.3008 27.5635 12.6787 25.2787C12.3823 24.157 12.4621 22.9689 12.9059 21.8969C13.3496 20.8249 14.1328 19.9281 15.1354 19.344C16.439 18.5923 17.9712 18.4713 19.4006 18.9129C19.7213 19.0089 20.0371 18.8419 20.2138 18.5817C21.6192 16.5139 24.1901 15.4003 26.6602 15.8841C27.7897 16.1054 28.8393 16.6254 29.6995 17.3901C30.5598 18.1548 31.1993 19.1362 31.5514 20.232C31.5848 20.352 31.6487 20.4614 31.7368 20.5496C31.8249 20.6377 31.9343 20.7016 32.0544 20.735C34.2173 21.2045 35.7504 23.207 35.473 25.439C35.2099 27.5597 33.361 29.1264 31.249 29.1542C30.3235 29.1667 30.3206 30.6067 31.249 30.5942L31.2547 30.5971Z" fill="#7966FE"/>
<path d="M21.1392 28.6339L20.4317 26.7907C20.2925 26.4278 19.9517 26.1773 19.5456 26.2877C19.199 26.3837 18.9024 26.808 19.0426 27.1738L19.7501 29.017C19.8893 29.3798 20.2301 29.6304 20.6362 29.52C20.9827 29.424 21.2794 28.9997 21.1392 28.6339Z" fill="#7966FE"/>
<path d="M22.7203 32.7504L22.0128 30.9072C21.8736 30.5443 21.5328 30.2938 21.1267 30.4042C20.7802 30.5002 20.4835 30.9245 20.6237 31.2902L21.3312 33.1334C21.4704 33.4963 21.8112 33.7469 22.2173 33.6365C22.5638 33.5405 22.8605 33.1162 22.7203 32.7504Z" fill="#7966FE"/>
<path d="M24.7834 28.6339L24.0758 26.7907C23.9366 26.4278 23.5958 26.1773 23.1898 26.2877C22.8432 26.3837 22.5466 26.808 22.6867 27.1738L23.3942 29.017C23.5334 29.3798 23.8742 29.6304 24.2803 29.52C24.6269 29.424 24.9235 28.9997 24.7834 28.6339Z" fill="#7966FE"/>
<path d="M26.3645 32.7504L25.657 30.9072C25.5178 30.5443 25.1769 30.2938 24.7709 30.4042C24.4243 30.5002 24.1277 30.9245 24.2678 31.2902L24.9753 33.1334C25.1145 33.4963 25.4554 33.7469 25.8614 33.6365C26.208 33.5405 26.5046 33.1162 26.3645 32.7504Z" fill="#7966FE"/>
<path d="M28.4275 28.6339L27.72 26.7907C27.5808 26.4278 27.24 26.1773 26.8339 26.2877C26.4874 26.3837 26.1907 26.808 26.3309 27.1738L27.0384 29.017C27.1776 29.3798 27.5184 29.6304 27.9245 29.52C28.271 29.424 28.5677 28.9997 28.4275 28.6339Z" fill="#7966FE"/>
<path d="M30.0086 32.7504L29.3011 30.9072C29.1619 30.5443 28.8211 30.2938 28.415 30.4042C28.0685 30.5002 27.7718 30.9245 27.912 31.2902L28.6195 33.1334C28.7587 33.4963 29.0995 33.7469 29.5056 33.6365C29.8522 33.5405 30.1488 33.1162 30.0086 32.7504Z" fill="#7966FE"/>
</svg>
